<svg xmlns="http://www.w3.org/2000/svg" viewBox="0 0 220 220" fill="none">
  <defs>
    <linearGradient id="handle" x1="42" y1="186" x2="182" y2="34" gradientUnits="userSpaceOnUse">
      <stop stop-color="#8AA5C8"/>
      <stop offset="0.48" stop-color="#DCEBFF"/>
      <stop offset="1" stop-color="#6E89AE"/>
    </linearGradient>
    <linearGradient id="ferrule" x1="87" y1="136" x2="122" y2="99" gradientUnits="userSpaceOnUse">
      <stop stop-color="#CFD8E7"/>
      <stop offset="1" stop-color="#F8FCFF"/>
    </linearGradient>
    <linearGradient id="bristle" x1="124" y1="87" x2="191" y2="30" gradientUnits="userSpaceOnUse">
      <stop stop-color="#683B2F"/>
      <stop offset="1" stop-color="#D69B72"/>
    </linearGradient>
  </defs>
  <path d="M35 178.2C31.6 181.7 31.6 187.2 35 190.6C38.4 194 43.9 194 47.3 190.6L120.1 117.8L107.8 105.5L35 178.2Z" fill="url(#handle)"/>
  <path d="M107.1 104.8L121.4 119.1L138.3 102.2C141 99.5 141 95.2 138.3 92.5L133.7 87.9C131 85.2 126.7 85.2 124 87.9L107.1 104.8Z" fill="url(#ferrule)"/>
  <path d="M136.8 84.8C132.6 80.6 129.8 79.8 124.4 82.3C119.3 84.6 113.5 89.2 107.7 95C102 100.8 97.4 106.6 95.1 111.7C92.6 117.1 93.4 119.9 97.6 124.1L103.2 129.7L142.4 90.4L136.8 84.8Z" fill="url(#bristle)"/>
  <path d="M145.1 94.4C151.4 87.7 154.4 78.8 153.6 69.7C162.7 68.9 171.6 65.9 178.3 59.6C188.2 50.2 192.5 36.8 190.2 24.2C177.6 21.9 164.2 26.2 154.8 36.1C148.5 42.8 145.5 51.7 146.3 60.8C137.2 61.6 128.3 64.6 121.6 70.9L145.1 94.4Z" fill="#F2A17E"/>
</svg>