<svg xmlns="http://www.w3.org/2000/svg" width="512" height="512" viewBox="0 0 512 512" role="img" aria-label="Dipa Signature Realms logo">
  <defs>
    <linearGradient id="ring" x1="0" y1="0" x2="1" y2="1">
      <stop offset="0%" stop-color="#7c3aed" />
      <stop offset="52%" stop-color="#e0bf62" />
      <stop offset="100%" stop-color="#22d3ee" />
    </linearGradient>
    <linearGradient id="fillA" x1="0" y1="0" x2="1" y2="1">
      <stop offset="0%" stop-color="#f472b6" />
      <stop offset="100%" stop-color="#7c3aed" />
    </linearGradient>
    <linearGradient id="fillB" x1="0" y1="0" x2="1" y2="1">
      <stop offset="0%" stop-color="#e0bf62" />
      <stop offset="100%" stop-color="#c58f1f" />
    </linearGradient>
    <linearGradient id="fillC" x1="0" y1="0" x2="1" y2="1">
      <stop offset="0%" stop-color="#22d3ee" />
      <stop offset="100%" stop-color="#0ea5e9" />
    </linearGradient>
  </defs>
  <rect width="512" height="512" rx="96" fill="#08070d" />
  <circle cx="256" cy="256" r="188" fill="none" stroke="url(#ring)" stroke-width="16" />
  <path d="M256 112 C320 112 360 170 360 220 C360 264 326 300 256 352 C186 300 152 264 152 220 C152 170 192 112 256 112 Z" fill="url(#fillA)" opacity="0.9" />
  <path d="M160 272 C214 248 248 248 256 248 C264 248 298 248 352 272 C334 332 302 374 256 408 C210 374 178 332 160 272 Z" fill="url(#fillB)" opacity="0.86" />
  <path d="M256 126 L296 228 L256 330 L216 228 Z" fill="url(#fillC)" opacity="0.9" />
</svg>
