<svg xmlns="http://www.w3.org/2000/svg" width="400" height="400" viewBox="0 0 400 400" role="img" aria-label="UPI QR placeholder">
  <rect width="400" height="400" fill="#ffffff"/>
  <rect x="30" y="30" width="340" height="340" fill="none" stroke="#111111" stroke-width="8"/>
  <rect x="50" y="50" width="80" height="80" fill="#111111"/>
  <rect x="62" y="62" width="56" height="56" fill="#ffffff"/>
  <rect x="70" y="70" width="40" height="40" fill="#111111"/>
  <rect x="270" y="50" width="80" height="80" fill="#111111"/>
  <rect x="282" y="62" width="56" height="56" fill="#ffffff"/>
  <rect x="290" y="70" width="40" height="40" fill="#111111"/>
  <rect x="50" y="270" width="80" height="80" fill="#111111"/>
  <rect x="62" y="282" width="56" height="56" fill="#ffffff"/>
  <rect x="70" y="290" width="40" height="40" fill="#111111"/>
  <rect x="168" y="158" width="16" height="16" fill="#111111"/>
  <rect x="200" y="158" width="16" height="16" fill="#111111"/>
  <rect x="232" y="158" width="16" height="16" fill="#111111"/>
  <rect x="168" y="190" width="16" height="16" fill="#111111"/>
  <rect x="200" y="190" width="16" height="16" fill="#111111"/>
  <rect x="232" y="190" width="16" height="16" fill="#111111"/>
  <rect x="168" y="222" width="16" height="16" fill="#111111"/>
  <rect x="200" y="222" width="16" height="16" fill="#111111"/>
  <rect x="232" y="222" width="16" height="16" fill="#111111"/>
  <text x="200" y="385" text-anchor="middle" fill="#111111" font-family="Arial, sans-serif" font-size="20">Replace with your UPI QR</text>
</svg>
