<svg width="1600" height="1200" viewBox="0 0 1600 1200" fill="none" xmlns="http://www.w3.org/2000/svg">
  <defs>
    <radialGradient id="meshGlow" cx="0" cy="0" r="1" gradientUnits="userSpaceOnUse" gradientTransform="translate(800 540) rotate(90) scale(680 920)">
      <stop offset="0" stop-color="#4FD8BF" stop-opacity="0.48"/>
      <stop offset="0.58" stop-color="#5DA8FF" stop-opacity="0.26"/>
      <stop offset="1" stop-color="#0A1320" stop-opacity="0"/>
    </radialGradient>
    <linearGradient id="lineFade" x1="200" y1="140" x2="1400" y2="1060" gradientUnits="userSpaceOnUse">
      <stop stop-color="#FFB767" stop-opacity="0.65"/>
      <stop offset="1" stop-color="#4FD8BF" stop-opacity="0.25"/>
    </linearGradient>
  </defs>
  <rect width="1600" height="1200" fill="url(#meshGlow)"/>
  <g stroke="url(#lineFade)" stroke-width="1.6" stroke-linecap="round" opacity="0.62">
    <path d="M140 1000C360 740 420 460 670 270C910 89 1160 180 1460 360"/>
    <path d="M120 860C340 620 510 340 780 220C1040 110 1220 190 1500 340"/>
    <path d="M130 680C390 540 520 370 810 290C1080 214 1260 260 1490 380"/>
    <path d="M100 530C360 510 560 430 860 420C1120 412 1290 450 1520 560"/>
    <path d="M90 360C340 440 560 520 840 600C1110 675 1280 730 1480 840"/>
    <path d="M220 120C460 350 690 520 980 690C1200 820 1350 900 1510 1040"/>
    <path d="M330 90C520 300 730 470 1000 650C1240 810 1380 910 1540 1110"/>
    <path d="M520 70C700 280 870 470 1120 650C1320 800 1430 930 1580 1120"/>
  </g>
  <g fill="#F6FBFF" opacity="0.38">
    <circle cx="310" cy="320" r="3"/>
    <circle cx="520" cy="420" r="2.4"/>
    <circle cx="740" cy="540" r="3.2"/>
    <circle cx="960" cy="450" r="2.8"/>
    <circle cx="1190" cy="540" r="3"/>
    <circle cx="1330" cy="700" r="2.7"/>
    <circle cx="640" cy="760" r="2.5"/>
    <circle cx="880" cy="860" r="3"/>
    <circle cx="1110" cy="970" r="2.4"/>
  </g>
</svg>
